<?xml version="1.0" standalone="no"?>
<!DOCTYPE svg PUBLIC "-//W3C//DTD SVG 20010904//EN"
 "http://www.w3.org/TR/2001/REC-SVG-20010904/DTD/svg10.dtd">
<svg version="1.0" xmlns="http://www.w3.org/2000/svg"
 width="220.000000pt" height="165.000000pt" viewBox="0 0 220.000000 165.000000"
 preserveAspectRatio="xMidYMid meet">

<g transform="translate(0.000000,165.000000) scale(0.100000,-0.100000)"
fill="#000000" stroke="none">
<path d="M0 825 l0 -825 1100 0 1100 0 0 825 0 825 -1100 0 -1100 0 0 -825z
m989 281 c31 -17 51 -54 51 -96 l0 -30 64 0 c64 0 64 0 61 27 -10 94 91 149
156 84 l29 -29 0 -237 0 -237 -29 -29 c-61 -61 -151 -23 -151 64 l0 43 -65 1
-65 0 0 -29 c0 -96 -96 -143 -161 -79 l-29 29 0 237 0 237 29 29 c33 32 67 37
110 15z"/>
<path d="M916 1054 c-12 -11 -16 -36 -16 -91 l0 -75 39 33 c35 30 39 39 40 80
1 63 -28 88 -63 53z"/>
<path d="M1232 1058 c-7 -7 -12 -42 -12 -85 0 -118 -28 -159 -119 -177 -19 -3
-40 -11 -48 -17 -18 -15 -17 -55 2 -63 8 -3 15 -13 16 -23 0 -14 2 -13 9 5 7
16 18 22 42 22 46 0 107 38 142 88 27 38 30 52 34 135 4 78 1 96 -13 110 -19
20 -36 22 -53 5z"/>
<path d="M1010 907 c-77 -40 -110 -109 -110 -229 0 -67 14 -98 44 -98 26 0 36
26 36 92 0 38 6 83 14 102 17 41 61 76 95 76 38 0 73 27 69 53 -5 34 -88 36
-148 4z"/>
<path d="M1251 719 c-43 -38 -44 -40 -35 -81 18 -83 77 -78 82 8 2 33 10 56
25 72 16 18 18 25 8 35 -10 9 -11 9 -6 -4 4 -10 0 -19 -11 -23 -12 -4 -15 -2
-11 9 12 28 -9 22 -52 -16z"/>
</g>
</svg>
